<svg width="640" height="439" viewBox="0 0 640 439" fill="none" xmlns="http://www.w3.org/2000/svg">
<g filter="url(#filter0_d_8_12)">
<path d="M232.094 144.648L638.256 20.8957V268.401L232.094 416.366V144.648Z" fill="#F1DA97"/>
<path d="M232.094 144.648L638.256 20.8957V268.401L232.094 416.366V144.648Z" fill="#AE9B65"/>
<path d="M19.6 131.833L459.099 0L638.256 20.8957L232.094 144.648L19.6 131.833Z" fill="#C8B06B"/>
<path d="M19.6 131.833L232.094 144.648V416.366L19.6 393.938L19.6 131.833Z" fill="#F1DA97"/>
<path d="M19.6 131.833L232.094 144.648V416.366L19.6 393.938L19.6 131.833Z" fill="#F9E8B7"/>
<path d="M334.24 234.097C337.746 234.058 340.704 235.032 343.116 237.019C345.567 238.942 347.182 241.483 347.96 244.642C349.146 249.458 348.459 253.582 345.899 257.014C343.378 260.381 339.139 262.798 333.184 264.265L304.365 271.363L290.82 216.367L318.862 209.46C324.454 208.082 329.156 208.215 332.966 209.858C336.776 211.501 339.255 214.653 340.403 219.314C341.194 222.525 341.009 225.454 339.849 228.102C338.727 230.685 336.858 232.683 334.24 234.097ZM313.345 233.559L320.025 231.913C321.579 231.531 322.641 230.939 323.213 230.139C323.837 229.326 323.99 228.273 323.671 226.978C323.339 225.632 322.708 224.743 321.779 224.313C320.888 223.819 319.666 223.763 318.112 224.145L311.432 225.791L313.345 233.559ZM326.05 251.357C327.604 250.974 328.673 250.408 329.257 249.66C329.881 248.848 330.027 247.768 329.696 246.422C329.045 243.78 327.192 242.836 324.137 243.589L316.291 245.521L318.204 253.289L326.05 251.357ZM360.776 199.136L368.41 230.13C369.035 232.667 370.076 234.553 371.534 235.787C373.03 236.956 375.021 237.235 377.507 236.623C379.993 236.011 381.653 234.833 382.486 233.089C383.308 231.294 383.406 229.128 382.781 226.59L375.147 195.597L392.314 191.368L399.948 222.362C401.236 227.593 401.252 232.34 399.995 236.604C398.726 240.817 396.43 244.321 393.109 247.116C389.788 249.911 385.797 251.883 381.136 253.031C376.476 254.179 372.103 254.267 368.019 253.296C363.987 252.312 360.508 250.23 357.583 247.05C354.657 243.871 352.544 239.64 351.243 234.358L343.609 203.364L360.776 199.136ZM442.941 178.899L446.308 192.57L431.705 196.167L441.883 237.492L424.638 241.74L414.46 200.415L400.012 203.973L396.644 190.302L442.941 178.899ZM490.807 167.109L494.175 180.781L479.571 184.378L489.749 225.703L472.505 229.95L462.326 188.625L447.878 192.184L444.511 178.512L490.807 167.109ZM516.115 175.459L517.78 182.217L534.869 178.008L538.064 190.98L520.975 195.189L522.888 202.957L542.308 198.174L545.694 211.923L509.03 220.954L495.484 165.957L532.149 156.927L535.535 170.676L516.115 175.459ZM579.847 203.512L564.656 186.326L564.578 186.345L569.438 206.075L552.193 210.323L538.648 155.326L564.281 149.013C568.735 147.916 572.739 147.781 576.293 148.608C579.835 149.384 582.72 150.952 584.95 153.314C587.219 155.612 588.774 158.47 589.616 161.887C590.521 165.564 590.289 169.082 588.919 172.44C587.601 175.786 585.179 178.552 581.653 180.739L598.8 198.843L579.847 203.512ZM561.747 174.848L568.582 173.165C570.239 172.757 571.393 172.088 572.043 171.159C572.68 170.178 572.801 168.885 572.406 167.28C572.049 165.83 571.328 164.799 570.243 164.187C569.211 163.563 567.892 163.448 566.286 163.843L559.451 165.527L561.747 174.848Z" fill="#89753F"/>
</g>
<defs>
<filter id="filter0_d_8_12" x="5.72205e-06" y="0" width="639.856" height="438.966" filterUnits="userSpaceOnUse" color-interpolation-filters="sRGB">
<feFlood flood-opacity="0" result="BackgroundImageFix"/>
<feColorMatrix in="SourceAlpha" type="matrix" values="0 0 0 0 0 0 0 0 0 0 0 0 0 0 0 0 0 0 127 0" result="hardAlpha"/>
<feOffset dx="-9" dy="12"/>
<feGaussianBlur stdDeviation="5.3"/>
<feComposite in2="hardAlpha" operator="out"/>
<feColorMatrix type="matrix" values="0 0 0 0 0 0 0 0 0 0 0 0 0 0 0 0 0 0 0.25 0"/>
<feBlend mode="normal" in2="BackgroundImageFix" result="effect1_dropShadow_8_12"/>
<feBlend mode="normal" in="SourceGraphic" in2="effect1_dropShadow_8_12" result="shape"/>
</filter>
</defs>
</svg>
