<svg width="243" height="182" viewBox="0 0 243 182" fill="none" xmlns="http://www.w3.org/2000/svg">
<g filter="url(#filter0_d_8_6)">
<path d="M27.2906 171.767L9.8292 133.225C9.8292 133.225 16.082 121.56 20.9471 117.594C27.8243 111.989 35.6382 118.007 43.3 113.534C50.9619 109.06 51.2132 101.981 57.8235 96.0637C66.8598 87.9744 75.1045 90.053 84.6428 80.405C94.181 70.757 101.874 64.8591 114.952 58.2132C123.34 53.9509 129.146 54.0129 137.443 49.5769C148.222 43.8141 151.773 36.7678 162.305 30.5658C173.161 24.1728 180.7 23.5014 191.92 17.7701C201.708 12.7702 216.225 3.5794 216.225 3.5794L230.631 44.6152C230.631 44.6152 220.581 58.9115 202.731 65.4002C196.189 67.7783 172.036 70.9129 169.645 77.4501C164.436 91.6929 148.133 95.7213 141.438 97.0815C130.405 99.3234 131.754 110.856 121.996 116.472C112.727 121.806 103.725 119.713 95.2347 126.217C86.6582 132.786 86.87 139.453 77.5251 144.874C69.9563 149.264 56.381 145.406 50.8106 152.154C41.4399 163.505 27.2906 171.767 27.2906 171.767Z" fill="#934848"/>
<path d="M9.776 133.107L27.2906 171.767C27.2906 171.767 41.4399 163.505 50.8106 152.154C56.381 145.406 69.9563 149.264 77.5251 144.874C86.87 139.453 86.6582 132.786 95.2347 126.217C103.725 119.713 112.727 121.806 121.996 116.472C131.754 110.856 130.405 99.3234 141.438 97.0815C148.133 95.7213 164.436 91.6929 169.645 77.4501C172.036 70.9129 196.189 67.7783 202.731 65.4002C220.581 58.9115 230.631 44.6152 230.631 44.6152L216.225 3.5794C216.225 3.5794 201.708 12.7702 191.92 17.7701C180.7 23.5014 173.161 24.1728 162.305 30.5658C151.773 36.7678 148.222 43.8141 137.443 49.5769C129.146 54.0129 123.34 53.9509 114.952 58.2132C101.874 64.8591 94.181 70.757 84.6428 80.405C75.1045 90.053 66.8598 87.9744 57.8235 96.0637C51.2132 101.981 50.9619 109.06 43.3 113.534C35.6382 118.007 27.8243 111.989 20.9471 117.594C16.082 121.56 9.8292 133.225 9.8292 133.225" stroke="#934848"/>
<path d="M35.8258 153.048C31.8376 156.552 22.7162 160.702 22.7162 160.702L16.7192 148C16.7192 148 20.3127 141.998 26.2776 134.072C28.4515 131.184 32.1609 129.806 35.776 129.954C43.8315 130.285 45.6511 131.587 50.9851 127.993C57.6948 123.473 58.8341 116.268 65.2771 110.533C71.3624 105.116 80.568 104.692 87.503 98.622C94.9308 92.1209 99.1714 87.9704 107.465 82.167C113.32 78.0698 116.648 76.1083 123.101 73.0378C132.088 68.7615 139.656 68.1398 147.821 62.4484C157.523 55.6858 159.714 51.4971 169.539 45.5944C180.114 39.2419 189.55 38.0843 200.593 31.6371L221.848 19.227L224.996 28.4666L211.164 36.5426C204.617 40.3654 201.339 43.2787 194.398 46.3316C188.545 48.9064 184.385 48.2658 178.843 51.4566C173.142 54.74 171.623 58.8387 166.315 62.7283C160.811 66.7621 157.119 68.0978 151.226 71.5384C143.86 75.8391 140.292 79.4008 132.364 82.5511C127.28 84.5716 123.844 84.1005 118.905 86.4524C111.449 90.0026 109.382 95.2085 102.604 99.9266C96.0706 104.475 91.0229 104.997 85.0002 110.205C80.148 114.401 78.8346 118.139 74.2949 122.674C67.9199 129.041 64.725 133.891 56.3178 137.127C52.2331 138.699 49.1858 137.411 45.3735 139.56C39.7567 142.725 40.6707 148.792 35.8258 153.048Z" fill="#FFEBEB"/>
</g>
<defs>
<filter id="filter0_d_8_6" x="8.52056" y="2.02078" width="231.468" height="179.257" filterUnits="userSpaceOnUse" color-interpolation-filters="sRGB">
<feFlood flood-opacity="0" result="BackgroundImageFix"/>
<feColorMatrix in="SourceAlpha" type="matrix" values="0 0 0 0 0 0 0 0 0 0 0 0 0 0 0 0 0 0 127 0" result="hardAlpha"/>
<feOffset dx="4" dy="4"/>
<feGaussianBlur stdDeviation="2.4"/>
<feComposite in2="hardAlpha" operator="out"/>
<feColorMatrix type="matrix" values="0 0 0 0 0 0 0 0 0 0 0 0 0 0 0 0 0 0 0.25 0"/>
<feBlend mode="normal" in2="BackgroundImageFix" result="effect1_dropShadow_8_6"/>
<feBlend mode="normal" in="SourceGraphic" in2="effect1_dropShadow_8_6" result="shape"/>
</filter>
</defs>
</svg>
